<svg xmlns="http://www.w3.org/2000/svg" width="15" height="15" viewBox="0 0 15 15"><defs><style>.a{fill:#676f8f;}</style></defs><path class="a" d="M91.591,289.56a7.579,7.579,0,0,1-2.384-1.606,7.506,7.506,0,0,1-1.606-8.223,7.579,7.579,0,0,1,1.606-2.384,7.379,7.379,0,0,1,2.384-1.606,7.48,7.48,0,0,1,2.919-.59,7.4,7.4,0,0,1,2.919.59,7.512,7.512,0,0,1,3.99,3.99,7.515,7.515,0,0,1,0,5.839,7.511,7.511,0,0,1-3.99,3.99,7.5,7.5,0,0,1-2.919.59A7.415,7.415,0,0,1,91.591,289.56Zm3.652-9.3a2.487,2.487,0,0,1-.956,1.556,2.542,2.542,0,0,0-.979,1.611,1.72,1.72,0,0,0,.394,1.057h0a.231.231,0,0,0,.206.087h1.3a.125.125,0,0,0,.11-.055.12.12,0,0,0,0-.124h0a1.6,1.6,0,0,1-.261-.782c0-.343.366-.718.787-1.149a3.54,3.54,0,0,0,1.313-2.334c0-1.5-1.158-2.508-2.878-2.508a5.026,5.026,0,0,0-2.219.471.181.181,0,0,0-.082.188v1.194a.108.108,0,0,0,.027.078.091.091,0,0,0,.073.032.141.141,0,0,0,.059-.014,4.12,4.12,0,0,1,1.771-.375C94.826,279.2,95.242,279.731,95.242,280.261ZM93.5,286.709a1.078,1.078,0,0,0,1.139,1.139,1.064,1.064,0,0,0,1.139-1.139,1.139,1.139,0,0,0-2.279,0Z" transform="translate(-87.01 -275.15)"/></svg>